<svg xmlns="http://www.w3.org/2000/svg" viewBox="0 0 32 32" width="32" height="32">
  <!-- Calculator body -->
  <rect x="4" y="4" width="24" height="26" rx="3" ry="3" fill="#2563eb" stroke="#1d4ed8" stroke-width="0.5"/>
  
  <!-- Calculator screen -->
  <rect x="6" y="6" width="20" height="6" rx="1" ry="1" fill="#f1f5f9" stroke="#cbd5e1" stroke-width="0.5"/>
  
  <!-- Dollar sign on screen -->
  <text x="16" y="11" text-anchor="middle" font-family="Arial, sans-serif" font-size="4" font-weight="bold" fill="#059669">$</text>
  
  <!-- Calculator buttons (3x4 grid) -->
  <!-- Row 1 -->
  <rect x="7" y="14" width="4" height="3" rx="0.5" fill="#e2e8f0" stroke="#cbd5e1" stroke-width="0.3"/>
  <rect x="12" y="14" width="4" height="3" rx="0.5" fill="#e2e8f0" stroke="#cbd5e1" stroke-width="0.3"/>
  <rect x="17" y="14" width="4" height="3" rx="0.5" fill="#e2e8f0" stroke="#cbd5e1" stroke-width="0.3"/>
  <rect x="22" y="14" width="4" height="3" rx="0.5" fill="#fbbf24" stroke="#f59e0b" stroke-width="0.3"/>
  
  <!-- Row 2 -->
  <rect x="7" y="18" width="4" height="3" rx="0.5" fill="#e2e8f0" stroke="#cbd5e1" stroke-width="0.3"/>
  <rect x="12" y="18" width="4" height="3" rx="0.5" fill="#e2e8f0" stroke="#cbd5e1" stroke-width="0.3"/>
  <rect x="17" y="18" width="4" height="3" rx="0.5" fill="#e2e8f0" stroke="#cbd5e1" stroke-width="0.3"/>
  <rect x="22" y="18" width="4" height="3" rx="0.5" fill="#fbbf24" stroke="#f59e0b" stroke-width="0.3"/>
  
  <!-- Row 3 -->
  <rect x="7" y="22" width="4" height="3" rx="0.5" fill="#e2e8f0" stroke="#cbd5e1" stroke-width="0.3"/>
  <rect x="12" y="22" width="4" height="3" rx="0.5" fill="#e2e8f0" stroke="#cbd5e1" stroke-width="0.3"/>
  <rect x="17" y="22" width="4" height="3" rx="0.5" fill="#e2e8f0" stroke="#cbd5e1" stroke-width="0.3"/>
  <rect x="22" y="22" width="4" height="3" rx="0.5" fill="#fbbf24" stroke="#f59e0b" stroke-width="0.3"/>
  
  <!-- Row 4 -->
  <rect x="7" y="26" width="9" height="3" rx="0.5" fill="#10b981" stroke="#059669" stroke-width="0.3"/>
  <rect x="17" y="26" width="4" height="3" rx="0.5" fill="#e2e8f0" stroke="#cbd5e1" stroke-width="0.3"/>
  <rect x="22" y="26" width="4" height="3" rx="0.5" fill="#fbbf24" stroke="#f59e0b" stroke-width="0.3"/>
  
  <!-- Button labels -->
  <text x="9" y="16.5" text-anchor="middle" font-family="Arial, sans-serif" font-size="1.8" fill="#374151">7</text>
  <text x="14" y="16.5" text-anchor="middle" font-family="Arial, sans-serif" font-size="1.8" fill="#374151">8</text>
  <text x="19" y="16.5" text-anchor="middle" font-family="Arial, sans-serif" font-size="1.8" fill="#374151">9</text>
  <text x="24" y="16.5" text-anchor="middle" font-family="Arial, sans-serif" font-size="1.8" fill="#fff">รท</text>
  
  <text x="9" y="20.5" text-anchor="middle" font-family="Arial, sans-serif" font-size="1.8" fill="#374151">4</text>
  <text x="14" y="20.5" text-anchor="middle" font-family="Arial, sans-serif" font-size="1.8" fill="#374151">5</text>
  <text x="19" y="20.5" text-anchor="middle" font-family="Arial, sans-serif" font-size="1.8" fill="#374151">6</text>
  <text x="24" y="20.5" text-anchor="middle" font-family="Arial, sans-serif" font-size="1.8" fill="#fff">ร</text>
  
  <text x="9" y="24.5" text-anchor="middle" font-family="Arial, sans-serif" font-size="1.8" fill="#374151">1</text>
  <text x="14" y="24.5" text-anchor="middle" font-family="Arial, sans-serif" font-size="1.8" fill="#374151">2</text>
  <text x="19" y="24.5" text-anchor="middle" font-family="Arial, sans-serif" font-size="1.8" fill="#374151">3</text>
  <text x="24" y="24.5" text-anchor="middle" font-family="Arial, sans-serif" font-size="1.8" fill="#fff">-</text>
  
  <text x="11.5" y="28.5" text-anchor="middle" font-family="Arial, sans-serif" font-size="1.8" fill="#fff">0</text>
  <text x="19" y="28.5" text-anchor="middle" font-family="Arial, sans-serif" font-size="1.8" fill="#374151">.</text>
  <text x="24" y="28.5" text-anchor="middle" font-family="Arial, sans-serif" font-size="1.8" fill="#fff">=</text>
</svg>
